# xmcd
#
# Track frame offsets: 
#        150
#        35216
#        69081
#        111974
#        148898
#        170268
#        203684
#        245403
#        290221
#
# Disc length: 4361 seconds
#
# Revision: 2
# Processed by: cddbd v1.5.2PL0 Copyright (c) Steve Scherf et al.
# Submitted via: ExactAudioCopy v0.95a5
#
DISCID=8a110709
DTITLE=Igor Butman - Prophecy
DYEAR=2003
DGENRE=Jazz
TTITLE0=Waltz For Oksana
TTITLE1=It Could Be Cool
TTITLE2=Prophecy
TTITLE3=Callahan Tunnel
TTITLE4=Russian Dance Blues (Traditional)
TTITLE5=Jazzophrenia
TTITLE6=Bremen's Musicians
TTITLE7=Egiptian Nights
TTITLE8=video (Bonus)
EXTD=YEAR: 2003
EXTT0=
EXTT1=
EXTT2=
EXTT3=
EXTT4=
EXTT5=
EXTT6=
EXTT7=
EXTT8=
PLAYORDER=
